<svg width="19" height="17" viewBox="0 0 19 17" fill="none" xmlns="http://www.w3.org/2000/svg">
<path d="M2.64341 15.5233L8.14053 10.0261C8.47054 9.69613 8.63555 9.53112 8.82582 9.4693C8.99319 9.41492 9.17348 9.41492 9.34085 9.4693C9.53112 9.53112 9.69613 9.69613 10.0261 10.0261L15.4866 15.4866M10.75 10.75L13.1405 8.35948C13.4705 8.02946 13.6355 7.86445 13.8258 7.80263C13.9932 7.74825 14.1735 7.74825 14.3408 7.80263C14.5311 7.86445 14.6961 8.02946 15.0261 8.35947L17.4167 10.75M7.41667 5.75C7.41667 6.67047 6.67047 7.41667 5.75 7.41667C4.82953 7.41667 4.08333 6.67047 4.08333 5.75C4.08333 4.82953 4.82953 4.08333 5.75 4.08333C6.67047 4.08333 7.41667 4.82953 7.41667 5.75ZM4.75 15.75H13.4167C14.8168 15.75 15.5169 15.75 16.0516 15.4775C16.522 15.2378 16.9045 14.8554 17.1442 14.385C17.4167 13.8502 17.4167 13.1501 17.4167 11.75V4.75C17.4167 3.34987 17.4167 2.6498 17.1442 2.11502C16.9045 1.64462 16.522 1.26217 16.0516 1.02248C15.5169 0.75 14.8168 0.75 13.4167 0.75H4.75C3.34987 0.75 2.6498 0.75 2.11502 1.02248C1.64462 1.26217 1.26217 1.64462 1.02248 2.11502C0.75 2.6498 0.75 3.34987 0.75 4.75V11.75C0.75 13.1501 0.75 13.8502 1.02248 14.385C1.26217 14.8554 1.64462 15.2378 2.11502 15.4775C2.6498 15.75 3.34987 15.75 4.75 15.75Z" stroke="black" stroke-opacity="0.6" stroke-width="1.5" stroke-linecap="round" stroke-linejoin="round"/>
</svg>
